<svg width="185" height="109" viewBox="0 0 185 109" fill="none" xmlns="http://www.w3.org/2000/svg">
<path d="M54.75 108.5C47.15 108.5 40.05 107.1 33.45 104.3C26.85 101.5 21.05 97.65 16.05 92.75C11.05 87.75 7.1 82 4.2 75.5C1.4 69 4.24683e-07 62 4.24683e-07 54.5C4.24683e-07 47 1.4 40 4.2 33.5C7.1 27 11.05 21.3 16.05 16.4C21.05 11.4 26.85 7.49999 33.45 4.69999C40.05 1.89999 47.15 0.499994 54.75 0.499994C59.45 0.499994 64 0.999994 68.4 1.99999C72.8 2.99999 76.85 4.49999 80.55 6.5C82.05 7.29999 83.15 8.39999 83.85 9.8C84.65 11.1 85.05 12.45 85.05 13.85C85.05 16.25 84.25 18.4 82.65 20.3C81.05 22.2 79 23.15 76.5 23.15C75.7 23.15 74.85 23.05 73.95 22.85C73.15 22.65 72.35 22.35 71.55 21.95C69.05 20.85 66.4 20 63.6 19.4C60.8 18.8 57.85 18.5 54.75 18.5C48.25 18.5 42.3 20.15 36.9 23.45C31.6 26.65 27.35 31 24.15 36.5C21.05 41.9 19.5 47.9 19.5 54.5C19.5 61 21.05 67 24.15 72.5C27.35 78 31.6 82.4 36.9 85.7C42.3 88.9 48.25 90.5 54.75 90.5C57.75 90.5 61.05 90.2 64.65 89.6C68.25 89 71.2 88.2 73.5 87.2L72.15 91.7V66.05L74.7 68.3H58.05C55.45 68.3 53.25 67.45 51.45 65.75C49.75 64.05 48.9 61.9 48.9 59.3C48.9 56.7 49.75 54.55 51.45 52.85C53.25 51.15 55.45 50.3 58.05 50.3H82.65C85.25 50.3 87.4 51.2 89.1 53C90.8 54.7 91.65 56.85 91.65 59.45V91.25C91.65 93.25 91.15 94.9 90.15 96.2C89.25 97.5 88.2 98.55 87 99.35C82.4 102.15 77.35 104.4 71.85 106.1C66.45 107.7 60.75 108.5 54.75 108.5ZM141.435 107C138.635 107 136.335 106.15 134.535 104.45C132.735 102.65 131.835 100.45 131.835 97.85V10.85H151.335V97.85C151.335 100.45 150.385 102.65 148.485 104.45C146.685 106.15 144.335 107 141.435 107ZM108.285 19.25C105.685 19.25 103.485 18.45 101.685 16.85C99.9848 15.25 99.1348 13.15 99.1348 10.55C99.1348 7.95 99.9848 5.9 101.685 4.4C103.485 2.79999 105.685 1.99999 108.285 1.99999H174.885C177.485 1.99999 179.635 2.79999 181.335 4.4C183.135 5.99999 184.035 8.09999 184.035 10.7C184.035 13.3 183.135 15.4 181.335 17C179.635 18.5 177.485 19.25 174.885 19.25H108.285Z" fill="url(#paint0_linear_402_1944)"/>
<defs>
<linearGradient id="paint0_linear_402_1944" x1="189" y1="51" x2="-5.99999" y2="51" gradientUnits="userSpaceOnUse">
<stop stop-color="#03557E"/>
<stop offset="1" stop-color="#0198E4"/>
</linearGradient>
</defs>
</svg>
