<svg width="600" height="266" viewBox="0 0 600 266" fill="none" xmlns="http://www.w3.org/2000/svg">
<path d="M331.035 53.2556L329.671 28.7112C329.433 24.4341 329.836 19.9918 332.114 16.364C333.635 13.942 335.43 12.2488 337.902 11.2121C345.147 8.17402 352.864 13.4934 357.977 19.458L370.69 34.2901" stroke="#DBF0FD" stroke-width="7" stroke-linecap="round"/>
<path d="M234.483 32.5665L243.445 19.6214C247.665 13.5258 254.125 7.8702 261.404 9.27578C264.226 9.82074 266.289 11.1659 268.058 13.2453C271.651 17.4685 272.122 23.4184 271.57 28.9357L268.966 54.9803" stroke="#DBF0FD" stroke-width="7" stroke-linecap="round"/>
<path d="M152 99.0001L208.815 42.6743C212.09 39.4278 216.059 36.9162 220.494 35.6559C240.636 29.9327 252.281 32.2812 264.544 49.7936C267.624 54.1912 268.966 59.5366 268.966 64.9052V92.9108" stroke="#DBF0FD" stroke-width="7" stroke-linecap="round"/>
<path d="M440 94.5001L389.815 44.7494C386.314 41.2786 382.022 38.6527 377.242 37.4434C360.009 33.083 350.184 34.5986 337.387 48.9069C333.036 53.7708 331.034 60.2344 331.034 66.7601V91.1876" stroke="#DBF0FD" stroke-width="7" stroke-linecap="round"/>
<path d="M332.759 120.497C330.194 127.697 328.224 133.601 326.807 139.292C323.314 153.327 312.202 165.324 297.74 165.324C285.605 165.324 275.103 156.931 272.206 145.148C269.89 135.727 267.245 125.503 265.517 120.497C261.909 110.04 270.219 92.9106 281.281 92.9106H316.368C329.256 92.9106 336.584 108.19 332.759 120.497Z" stroke="#DBF0FD" stroke-width="7" stroke-linecap="round"/>
<circle cx="189.655" cy="175.669" r="62.0172" stroke="#DBF0FD" stroke-width="7"/>
<circle cx="410.345" cy="175.669" r="62.0172" stroke="#DBF0FD" stroke-width="7"/>
<circle cx="189.655" cy="175.669" r="86.1552" stroke="#DBF0FD" stroke-width="7"/>
<circle cx="410.345" cy="175.669" r="86.1552" stroke="#DBF0FD" stroke-width="7"/>
<rect x="100" width="400" height="265" rx="30" fill="#035077" fill-opacity="0.6"/>
<path d="M43.8108 210C37.7293 210 32.0479 208.88 26.7666 206.64C21.4853 204.4 16.8442 201.32 12.8432 197.4C8.84218 193.4 5.6814 188.8 3.36083 183.6C1.12028 178.4 0 172.8 0 166.8C0 160.8 1.12028 155.2 3.36083 150C5.6814 144.8 8.84218 140.24 12.8432 136.32C16.8442 132.32 21.4853 129.2 26.7666 126.96C32.0479 124.72 37.7293 123.6 43.8108 123.6C47.5717 123.6 51.2126 124 54.7335 124.8C58.2544 125.6 61.4952 126.8 64.4559 128.4C65.6562 129.04 66.5364 129.92 67.0966 131.04C67.7367 132.08 68.0568 133.16 68.0568 134.28C68.0568 136.2 67.4166 137.92 66.1363 139.44C64.856 140.96 63.2156 141.72 61.2151 141.72C60.575 141.72 59.8948 141.64 59.1746 141.48C58.5345 141.32 57.8943 141.08 57.2541 140.76C55.2536 139.88 53.1331 139.2 50.8926 138.72C48.652 138.24 46.2914 138 43.8108 138C38.6095 138 33.8484 139.32 29.5273 141.96C25.2862 144.52 21.8854 148 19.3248 152.4C16.8442 156.72 15.6039 161.52 15.6039 166.8C15.6039 172 16.8442 176.8 19.3248 181.2C21.8854 185.6 25.2862 189.12 29.5273 191.76C33.8484 194.32 38.6095 195.6 43.8108 195.6C46.2114 195.6 48.8521 195.36 51.7328 194.88C54.1943 194.47 56.276 193.943 57.978 193.299C58.3117 193.173 58.6575 193.483 58.555 193.825V193.825C58.4162 194.287 57.7343 194.187 57.7343 193.704V177.28C57.7343 176.798 58.3029 176.542 58.6643 176.86V176.86C59.0511 177.202 58.8098 177.84 58.294 177.84H46.4515C44.371 177.84 42.6105 177.16 41.1702 175.8C39.8098 174.44 39.1297 172.72 39.1297 170.64C39.1297 168.56 39.8098 166.84 41.1702 165.48C42.6105 164.12 44.371 163.44 46.4515 163.44H66.1363C68.2168 163.44 69.9373 164.16 71.2976 165.6C72.6579 166.96 73.3381 168.68 73.3381 170.76V196.2C73.3381 197.8 72.938 199.12 72.1378 200.16C71.4176 201.2 70.5774 202.04 69.6172 202.68C65.9363 204.92 61.8953 206.72 57.4942 208.08C53.1731 209.36 48.612 210 43.8108 210ZM93.7778 208.8C91.6973 208.8 89.9769 208.12 88.6166 206.76C87.2562 205.32 86.5761 203.56 86.5761 201.48V151.92C86.5761 149.84 87.2562 148.12 88.6166 146.76C89.9769 145.32 91.6973 144.6 93.7778 144.6C95.8583 144.6 97.5788 145.32 98.9391 146.76C100.299 148.12 100.98 149.84 100.98 151.92V163.2L100.772 161.212C100.358 157.25 100.765 153.016 103.5 150.12V150.12C104.941 148.6 106.541 147.36 108.301 146.4C110.062 145.36 111.942 144.6 113.943 144.12C115.943 143.64 117.944 143.4 119.944 143.4C122.345 143.4 124.345 144.08 125.946 145.44C127.626 146.8 128.466 148.4 128.466 150.24C128.466 152.88 127.786 154.8 126.426 156C125.066 157.12 123.585 157.68 121.985 157.68C120.464 157.68 119.064 157.4 117.784 156.84C116.583 156.28 115.183 156 113.583 156C112.142 156 110.662 156.36 109.142 157.08C107.701 157.72 106.341 158.76 105.061 160.2C103.86 161.64 102.86 163.44 102.06 165.6C101.34 167.68 100.98 170.16 100.98 173.04V201.48C100.98 203.56 100.299 205.32 98.9391 206.76C97.5788 208.12 95.8583 208.8 93.7778 208.8ZM189.787 143.4C191.867 143.4 193.587 144.08 194.948 145.44C196.308 146.8 196.988 148.56 196.988 150.72V201.48C196.988 203.56 196.308 205.32 194.948 206.76C193.587 208.12 191.867 208.8 189.787 208.8C187.706 208.8 185.986 208.12 184.625 206.76C183.265 205.32 182.585 203.56 182.585 201.48V197.566C182.585 196.628 183.536 195.989 184.405 196.344V196.344C184.901 196.547 185.24 197.036 185.108 197.556C184.89 198.414 184.369 199.402 183.545 200.52C182.425 201.96 180.904 203.4 178.984 204.84C177.063 206.28 174.783 207.52 172.142 208.56C169.582 209.52 166.781 210 163.74 210C158.219 210 153.218 208.6 148.736 205.8C144.255 202.92 140.694 199 138.054 194.04C135.493 189 134.213 183.24 134.213 176.76C134.213 170.2 135.493 164.44 138.054 159.48C140.694 154.44 144.215 150.52 148.616 147.72C153.017 144.84 157.899 143.4 163.26 143.4C166.701 143.4 169.862 143.92 172.742 144.96C175.623 146 178.104 147.32 180.184 148.92C182.345 150.52 183.985 152.16 185.105 153.84C185.819 154.792 186.321 155.658 186.61 156.44C186.926 157.294 186.335 158.126 185.479 158.435V158.435C184.071 158.944 182.585 157.9 182.585 156.403V150.72C182.585 148.64 183.265 146.92 184.625 145.56C185.986 144.12 187.706 143.4 189.787 143.4ZM165.541 196.8C169.061 196.8 172.142 195.92 174.783 194.16C177.423 192.4 179.464 190 180.904 186.96C182.425 183.92 183.185 180.52 183.185 176.76C183.185 172.92 182.425 169.48 180.904 166.44C179.464 163.4 177.423 161 174.783 159.24C172.142 157.48 169.061 156.6 165.541 156.6C162.1 156.6 159.059 157.48 156.418 159.24C153.778 161 151.697 163.4 150.177 166.44C148.736 169.48 148.016 172.92 148.016 176.76C148.016 180.52 148.736 183.92 150.177 186.96C151.697 190 153.778 192.4 156.418 194.16C159.059 195.92 162.1 196.8 165.541 196.8ZM265.157 120C267.237 120 268.958 120.68 270.318 122.04C271.678 123.4 272.358 125.16 272.358 127.32V201.48C272.358 203.56 271.678 205.32 270.318 206.76C268.958 208.12 267.237 208.8 265.157 208.8C263.076 208.8 261.356 208.12 259.995 206.76C258.635 205.32 257.955 203.56 257.955 201.48V197.566C257.955 196.628 258.906 195.989 259.775 196.344V196.344C260.271 196.547 260.61 197.036 260.478 197.556C260.26 198.414 259.739 199.402 258.915 200.52C257.795 201.96 256.275 203.4 254.354 204.84C252.434 206.28 250.153 207.52 247.512 208.56C244.952 209.52 242.151 210 239.11 210C233.589 210 228.588 208.6 224.107 205.8C219.625 202.92 216.065 199 213.424 194.04C210.863 189 209.583 183.24 209.583 176.76C209.583 170.2 210.863 164.44 213.424 159.48C216.065 154.44 219.585 150.52 223.987 147.72C228.388 144.84 233.269 143.4 238.63 143.4C242.071 143.4 245.232 143.92 248.113 144.96C250.993 146 253.474 147.32 255.554 148.92C257.715 150.52 259.355 152.16 260.476 153.84C261.189 154.792 261.691 155.658 261.98 156.44C262.296 157.294 261.705 158.126 260.849 158.435V158.435C259.441 158.944 257.955 157.9 257.955 156.403V127.32C257.955 125.24 258.635 123.52 259.995 122.16C261.356 120.72 263.076 120 265.157 120ZM240.911 196.8C244.432 196.8 247.512 195.92 250.153 194.16C252.794 192.4 254.834 190 256.275 186.96C257.795 183.92 258.555 180.52 258.555 176.76C258.555 172.92 257.795 169.48 256.275 166.44C254.834 163.4 252.794 161 250.153 159.24C247.512 157.48 244.432 156.6 240.911 156.6C237.47 156.6 234.429 157.48 231.788 159.24C229.148 161 227.067 163.4 225.547 166.44C224.107 169.48 223.386 172.92 223.386 176.76C223.386 180.52 224.107 183.92 225.547 186.96C227.067 190 229.148 192.4 231.788 194.16C234.429 195.92 237.47 196.8 240.911 196.8ZM317.601 208.8C315.361 208.8 313.52 208.12 312.08 206.76C310.639 205.32 309.919 203.56 309.919 201.48V139.682C309.919 135.373 313.412 131.88 317.721 131.88V131.88C322.03 131.88 325.523 135.373 325.523 139.682V201.48C325.523 203.56 324.763 205.32 323.243 206.76C321.802 208.12 319.922 208.8 317.601 208.8ZM291.075 138.6C288.994 138.6 287.234 137.96 285.793 136.68C284.433 135.4 283.753 133.72 283.753 131.64C283.753 129.56 284.433 127.92 285.793 126.72C287.234 125.44 288.994 124.8 291.075 124.8H344.368C346.448 124.8 348.169 125.44 349.529 126.72C350.969 128 351.69 129.68 351.69 131.76C351.69 133.84 350.969 135.52 349.529 136.8C348.169 138 346.448 138.6 344.368 138.6H291.075ZM363.141 208.8C361.061 208.8 359.34 208.12 357.98 206.76C356.62 205.32 355.939 203.56 355.939 201.48V151.92C355.939 149.84 356.62 148.12 357.98 146.76C359.34 145.32 361.061 144.6 363.141 144.6C365.222 144.6 366.942 145.32 368.302 146.76C369.663 148.12 370.343 149.84 370.343 151.92V163.2L370.135 161.212C369.721 157.25 370.128 153.016 372.864 150.12V150.12C374.304 148.6 375.904 147.36 377.665 146.4C379.425 145.36 381.306 144.6 383.306 144.12C385.307 143.64 387.307 143.4 389.308 143.4C391.708 143.4 393.709 144.08 395.309 145.44C396.99 146.8 397.83 148.4 397.83 150.24C397.83 152.88 397.15 154.8 395.789 156C394.429 157.12 392.949 157.68 391.348 157.68C389.828 157.68 388.427 157.4 387.147 156.84C385.947 156.28 384.546 156 382.946 156C381.506 156 380.025 156.36 378.505 157.08C377.065 157.72 375.704 158.76 374.424 160.2C373.224 161.64 372.223 163.44 371.423 165.6C370.703 167.68 370.343 170.16 370.343 173.04V201.48C370.343 203.56 369.663 205.32 368.302 206.76C366.942 208.12 365.222 208.8 363.141 208.8ZM459.15 143.4C461.23 143.4 462.951 144.08 464.311 145.44C465.672 146.8 466.352 148.56 466.352 150.72V201.48C466.352 203.56 465.672 205.32 464.311 206.76C462.951 208.12 461.23 208.8 459.15 208.8C457.069 208.8 455.349 208.12 453.989 206.76C452.628 205.32 451.948 203.56 451.948 201.48V197.566C451.948 196.628 452.9 195.989 453.768 196.344V196.344C454.265 196.547 454.603 197.036 454.471 197.556C454.253 198.414 453.732 199.402 452.908 200.52C451.788 201.96 450.268 203.4 448.347 204.84C446.427 206.28 444.146 207.52 441.506 208.56C438.945 209.52 436.144 210 433.103 210C427.582 210 422.581 208.6 418.1 205.8C413.619 202.92 410.058 199 407.417 194.04C404.857 189 403.576 183.24 403.576 176.76C403.576 170.2 404.857 164.44 407.417 159.48C410.058 154.44 413.579 150.52 417.98 147.72C422.381 144.84 427.262 143.4 432.623 143.4C436.064 143.4 439.225 143.92 442.106 144.96C444.986 146 447.467 147.32 449.548 148.92C451.708 150.52 453.348 152.16 454.469 153.84C455.183 154.792 455.684 155.658 455.973 156.44C456.289 157.294 455.699 158.126 454.842 158.435V158.435C453.434 158.944 451.948 157.9 451.948 156.403V150.72C451.948 148.64 452.628 146.92 453.989 145.56C455.349 144.12 457.069 143.4 459.15 143.4ZM434.904 196.8C438.425 196.8 441.506 195.92 444.146 194.16C446.787 192.4 448.827 190 450.268 186.96C451.788 183.92 452.548 180.52 452.548 176.76C452.548 172.92 451.788 169.48 450.268 166.44C448.827 163.4 446.787 161 444.146 159.24C441.506 157.48 438.425 156.6 434.904 156.6C431.463 156.6 428.422 157.48 425.782 159.24C423.141 161 421.06 163.4 419.54 166.44C418.1 169.48 417.38 172.92 417.38 176.76C417.38 180.52 418.1 183.92 419.54 186.96C421.06 190 423.141 192.4 425.782 194.16C428.422 195.92 431.463 196.8 434.904 196.8ZM510.514 143.4C515.075 143.4 519.036 143.88 522.397 144.84C525.838 145.8 528.479 147.16 530.319 148.92C532.239 150.6 533.2 152.64 533.2 155.04C533.2 156.64 532.72 158.16 531.759 159.6C530.799 160.96 529.399 161.64 527.558 161.64C526.278 161.64 525.198 161.48 524.318 161.16C523.517 160.76 522.797 160.28 522.157 159.72C521.517 159.16 520.757 158.64 519.876 158.16C519.076 157.68 517.836 157.32 516.156 157.08C514.555 156.76 513.355 156.6 512.555 156.6C508.474 156.6 504.993 157.48 502.112 159.24C499.311 161 497.151 163.4 495.63 166.44C494.11 169.4 493.35 172.84 493.35 176.76C493.35 180.6 494.11 184.04 495.63 187.08C497.231 190.04 499.391 192.4 502.112 194.16C504.913 195.92 508.114 196.8 511.714 196.8C513.715 196.8 515.435 196.68 516.876 196.44C518.316 196.2 519.516 195.84 520.477 195.36C521.597 194.72 522.597 194.04 523.477 193.32C524.358 192.6 525.678 192.24 527.438 192.24C529.519 192.24 531.119 192.92 532.239 194.28C533.36 195.56 533.92 197.16 533.92 199.08C533.92 201.08 532.8 202.92 530.559 204.6C528.319 206.2 525.358 207.52 521.677 208.56C518.076 209.52 514.155 210 509.914 210C503.592 210 498.111 208.56 493.47 205.68C488.829 202.72 485.228 198.72 482.667 193.68C480.187 188.64 478.946 183 478.946 176.76C478.946 170.2 480.267 164.44 482.907 159.48C485.628 154.44 489.349 150.52 494.07 147.72C498.871 144.84 504.353 143.4 510.514 143.4ZM552.708 208.8C550.628 208.8 548.907 208.12 547.547 206.76C546.187 205.32 545.507 203.56 545.507 201.48V127.32C545.507 125.24 546.187 123.52 547.547 122.16C548.907 120.72 550.628 120 552.708 120C554.789 120 556.509 120.72 557.87 122.16C559.23 123.52 559.91 125.24 559.91 127.32V201.48C559.91 203.56 559.23 205.32 557.87 206.76C556.509 208.12 554.789 208.8 552.708 208.8ZM590.878 144.6C592.718 144.6 594.319 145.36 595.679 146.88C597.039 148.4 597.719 149.88 597.719 151.32C597.719 153.24 596.759 155.04 594.839 156.72L568.825 180.653C564.847 184.313 558.408 181.626 558.212 176.224V176.224C558.147 174.427 558.849 172.687 560.143 171.438L585.596 146.88C587.117 145.36 588.877 144.6 590.878 144.6ZM592.678 208.68C590.598 208.68 588.837 207.88 587.397 206.28L570.316 188.188C567.495 185.2 567.658 180.484 570.677 177.697V177.697C573.678 174.928 578.357 175.121 581.119 178.128L597.719 196.2C599.24 197.8 600 199.6 600 201.6C600 203.68 599.16 205.4 597.479 206.76C595.879 208.04 594.279 208.68 592.678 208.68Z" fill="url(#paint0_linear_439_2588)"/>
<defs>
<linearGradient id="paint0_linear_439_2588" x1="0" y1="165" x2="600" y2="165" gradientUnits="userSpaceOnUse">
<stop stop-color="#83C6EF"/>
<stop offset="1" stop-color="#0199E5"/>
</linearGradient>
</defs>
</svg>
