<svg width="1240" height="519" viewBox="0 0 1240 519" fill="none" xmlns="http://www.w3.org/2000/svg">
<path d="M67.5534 433.93C67.5534 397.338 10.3908 512.241 359.285 433.93C398.66 414.197 534.251 357.415 585.14 324.372C723.6 234.469 758.744 282.834 888.526 163.517C1018.31 44.2005 1058.15 129.559 1153 88.18" stroke="black" stroke-dasharray="10 10"/>
<g filter="url(#filter0_d_492_2136)">
<path d="M87.9233 407.614C87.9233 425.949 68.9617 441.665 68.9617 441.665C68.9617 441.665 50 425.949 50 407.614C50 401.362 51.9977 395.366 55.5537 390.945C59.1097 386.524 63.9327 384.04 68.9617 384.04C73.9906 384.04 78.8136 386.524 82.3696 390.945C85.9256 395.366 87.9233 401.362 87.9233 407.614Z" fill="#FFB830"/>
<path d="M68.9617 415.472C72.4524 415.472 75.2822 411.954 75.2822 407.614C75.2822 403.274 72.4524 399.756 68.9617 399.756C65.4709 399.756 62.6411 403.274 62.6411 407.614C62.6411 411.954 65.4709 415.472 68.9617 415.472Z" fill="#DBF0FD"/>
</g>
<g filter="url(#filter1_d_492_2136)">
<path d="M1146.77 48.7978L1100.31 57.9973L1141.49 80.9924L1187.4 71.7072L1146.77 48.7978Z" fill="black" stroke="black" stroke-width="5" stroke-linecap="round" stroke-linejoin="round"/>
<path d="M1147.51 64.8921L1141.89 64.0076L1142.61 60.4749C1143.65 59.4647 1143.16 58.737 1145.88 59.165C1148.59 59.593 1148.23 61.3594 1148.23 61.3594L1147.51 64.8921ZM1147.51 64.8921L1186.91 72.5858L1182.01 96.5122M1182.01 96.5122C1178.83 96.5089 1178.47 98.2752 1178.47 98.2752L1177.31 103.896L1184.02 104.951L1185.17 99.3309C1185.17 98.1751 1184.88 97.5401 1182.01 96.5122Z" stroke="black" stroke-width="5" stroke-linecap="round"/>
<path d="M1105.45 99.7707L1111.43 70.4272L1140.2 87.2653L1171.69 80.4008L1168.85 95.4285L1167.14 103.781L1166 109.302L1156.5 110.291L1146.63 110.344L1138.74 109.832L1130.27 108.499L1122.84 106.6L1114.51 103.681L1105.45 99.7707Z" fill="black"/>
<path d="M1167.14 103.781L1166 109.302L1156.5 110.291L1146.63 110.344L1138.74 109.832L1130.27 108.499L1122.84 106.6L1114.51 103.681L1105.45 99.7707L1111.43 70.4272L1140.2 87.2653L1171.69 80.4008L1168.85 95.4285L1167.14 103.781ZM1167.14 103.781L1157.69 104.486L1147.85 104.398L1139.26 103.631" stroke="black" stroke-width="5" stroke-linecap="round" stroke-linejoin="round"/>
<path d="M1108.2 87.9041L1115.2 91.077L1123.37 94.0564L1133.68 96.62" stroke="black" stroke-width="5" stroke-linecap="round"/>
</g>
<g filter="url(#filter2_d_492_2136)">
<path d="M661.83 264.223C661.83 280.208 642.868 293.909 642.868 293.909C642.868 293.909 623.906 280.208 623.906 264.223C623.906 258.773 625.904 253.545 629.46 249.691C633.016 245.837 637.839 243.672 642.868 243.672C647.897 243.672 652.72 245.837 656.276 249.691C659.832 253.545 661.83 258.773 661.83 264.223Z" fill="#FF2442"/>
<path d="M642.868 271.074C646.359 271.074 649.188 268.007 649.188 264.223C649.188 260.44 646.359 257.373 642.868 257.373C639.377 257.373 636.547 260.44 636.547 264.223C636.547 268.007 639.377 271.074 642.868 271.074Z" fill="#DBF0FD"/>
</g>
<path d="M431.164 401.413L394.412 417.41M431.164 401.413L399.2 438.909L394.412 417.41M431.164 401.413L372.919 403.182L394.412 417.41" stroke="black" stroke-width="4" stroke-linecap="round" stroke-linejoin="round"/>
<ellipse cx="1084" cy="488.886" rx="30" ry="29.9907" fill="#FF2442" fill-opacity="0.3"/>
<path d="M1085 473.89V479.889M1085 497.883V503.881M1074.39 478.284L1078.64 482.528M1091.36 495.244L1095.6 499.487M1070 488.886H1076M1094 488.886H1100M1074.39 499.487L1078.64 495.244M1091.36 482.528L1095.6 478.284" stroke="black" stroke-width="3" stroke-linecap="round" stroke-linejoin="round"/>
<ellipse cx="815" cy="470.891" rx="30" ry="29.9907" fill="#FFB830" fill-opacity="0.3"/>
<path d="M814.25 483.887V465.143M825.5 483.887V453.896M803 483.887V476.389" stroke="black" stroke-width="6" stroke-linecap="round" stroke-linejoin="round"/>
<ellipse cx="613" cy="436.902" rx="25" ry="24.9922" fill="#FF2442" fill-opacity="0.3"/>
<path d="M614 430.904C610.686 430.904 608 433.589 608 436.902C608 440.215 610.686 442.9 614 442.9C617.314 442.9 620 440.215 620 436.902C620 433.589 617.314 430.904 614 430.904ZM614 430.904H627.755M601.925 427.995L608.81 439.901M612.32 451.807L619.19 439.901M629 436.902C629 445.184 622.284 451.897 614 451.897C605.716 451.897 599 445.184 599 436.902C599 428.62 605.716 421.907 614 421.907C622.284 421.907 629 428.62 629 436.902Z" stroke="black" stroke-width="3" stroke-linecap="round" stroke-linejoin="round"/>
<ellipse cx="749" cy="330.935" rx="30" ry="29.9907" fill="#FFB830" fill-opacity="0.3"/>
<path d="M744.5 339.932L734 345.93V321.937L744.5 315.939M744.5 339.932L756.5 345.93M744.5 339.932V315.939M756.5 345.93L767 339.932V315.939L756.5 321.937M756.5 345.93V321.937M756.5 321.937L744.5 315.939" stroke="black" stroke-width="3" stroke-linecap="round" stroke-linejoin="round"/>
<ellipse cx="975" cy="362.925" rx="30" ry="29.9907" fill="#FFB830" fill-opacity="0.3"/>
<path d="M981.667 345.93V352.595M968.333 345.93V352.595M960 359.26H990M963.333 349.263H986.667C988.508 349.263 990 350.755 990 352.595V375.921C990 377.761 988.508 379.253 986.667 379.253H963.333C961.492 379.253 960 377.761 960 375.921V352.595C960 350.755 961.492 349.263 963.333 349.263Z" stroke="black" stroke-width="3" stroke-linecap="round" stroke-linejoin="round"/>
<ellipse cx="1133" cy="300.944" rx="30" ry="29.9907" fill="#FF2442" fill-opacity="0.3"/>
<path d="M1123.5 309.941H1122C1121.2 309.941 1120.44 309.625 1119.88 309.063C1119.32 308.5 1119 307.738 1119 306.942V291.947C1119 291.151 1119.32 290.389 1119.88 289.826C1120.44 289.264 1121.2 288.948 1122 288.948H1146C1146.8 288.948 1147.56 289.264 1148.12 289.826C1148.68 290.389 1149 291.151 1149 291.947V306.942C1149 307.738 1148.68 308.5 1148.12 309.063C1147.56 309.625 1146.8 309.941 1146 309.941H1144.5M1134 306.942L1141.5 315.939H1126.5L1134 306.942Z" stroke="black" stroke-width="3" stroke-linecap="round" stroke-linejoin="round"/>
<ellipse cx="914" cy="219.969" rx="30" ry="29.9907" fill="#FF2442" fill-opacity="0.3"/>
<path d="M916.5 198.976H908.75C906.695 198.976 904.723 199.713 903.27 201.026C901.817 202.338 901 204.118 901 205.974C901 207.83 901.817 209.61 903.27 210.922C904.723 212.234 906.695 212.972 908.75 212.972M916.5 198.976V212.972M916.5 198.976H924.25C925.268 198.976 926.276 199.157 927.216 199.509C928.156 199.86 929.01 200.376 929.73 201.026C930.45 201.675 931.021 202.447 931.41 203.296C931.8 204.145 932 205.055 932 205.974C932 206.893 931.8 207.803 931.41 208.652C931.021 209.501 930.45 210.272 929.73 210.922C929.01 211.572 928.156 212.087 927.216 212.439C926.276 212.791 925.268 212.972 924.25 212.972M916.5 212.972H908.75M916.5 212.972H924.25M916.5 212.972V226.967M908.75 212.972C906.695 212.972 904.723 213.709 903.27 215.021C901.817 216.334 901 218.114 901 219.97C901 221.825 901.817 223.605 903.27 224.918C904.723 226.23 906.695 226.967 908.75 226.967M924.25 212.972C923.232 212.972 922.224 213.153 921.284 213.504C920.344 213.856 919.49 214.372 918.77 215.021C918.05 215.671 917.479 216.443 917.09 217.292C916.7 218.141 916.5 219.051 916.5 219.97C916.5 220.889 916.7 221.798 917.09 222.648C917.479 223.497 918.05 224.268 918.77 224.918C919.49 225.568 920.344 226.083 921.284 226.435C922.224 226.786 923.232 226.967 924.25 226.967C925.268 226.967 926.276 226.786 927.216 226.435C928.156 226.083 929.01 225.568 929.73 224.918C930.45 224.268 931.021 223.497 931.41 222.648C931.8 221.798 932 220.889 932 219.97C932 219.051 931.8 218.141 931.41 217.292C931.021 216.443 930.45 215.671 929.73 215.021C929.01 214.372 928.156 213.856 927.216 213.504C926.276 213.153 925.268 212.972 924.25 212.972ZM908.75 226.967C906.695 226.967 904.723 227.705 903.27 229.017C901.817 230.329 901 232.109 901 233.965C901 235.821 901.817 237.601 903.27 238.913C904.723 240.226 906.695 240.963 908.75 240.963C910.805 240.963 912.777 240.226 914.23 238.913C915.683 237.601 916.5 235.821 916.5 233.965V226.967M908.75 226.967H916.5" stroke="black" stroke-width="3" stroke-linecap="round" stroke-linejoin="round"/>
<ellipse cx="1055" cy="150.991" rx="30" ry="29.9907" fill="#FFB830" fill-opacity="0.3"/>
<path d="M1070 138.995C1070 141.755 1063.28 143.993 1055 143.993C1046.72 143.993 1040 141.755 1040 138.995M1070 138.995C1070 136.234 1063.28 133.996 1055 133.996C1046.72 133.996 1040 136.234 1040 138.995M1070 138.995V162.321C1070 165.086 1063.33 167.319 1055 167.319C1046.67 167.319 1040 165.086 1040 162.321V138.995M1070 150.658C1070 153.423 1063.33 155.656 1055 155.656C1046.67 155.656 1040 153.423 1040 150.658" stroke="black" stroke-width="3" stroke-linecap="round" stroke-linejoin="round"/>
<defs>
<filter id="filter0_d_492_2136" x="0" y="338.04" width="137.923" height="157.625" filterUnits="userSpaceOnUse" color-interpolation-filters="sRGB">
<feFlood flood-opacity="0" result="BackgroundImageFix"/>
<feColorMatrix in="SourceAlpha" type="matrix" values="0 0 0 0 0 0 0 0 0 0 0 0 0 0 0 0 0 0 127 0" result="hardAlpha"/>
<feOffset dy="4"/>
<feGaussianBlur stdDeviation="25"/>
<feComposite in2="hardAlpha" operator="out"/>
<feColorMatrix type="matrix" values="0 0 0 0 1 0 0 0 0 0.721569 0 0 0 0 0.188235 0 0 0 0.5 0"/>
<feBlend mode="normal" in2="BackgroundImageFix" result="effect1_dropShadow_492_2136"/>
<feBlend mode="normal" in="SourceGraphic" in2="effect1_dropShadow_492_2136" result="shape"/>
</filter>
<filter id="filter1_d_492_2136" x="1047.79" y="0.318115" width="192.135" height="166.506" filterUnits="userSpaceOnUse" color-interpolation-filters="sRGB">
<feFlood flood-opacity="0" result="BackgroundImageFix"/>
<feColorMatrix in="SourceAlpha" type="matrix" values="0 0 0 0 0 0 0 0 0 0 0 0 0 0 0 0 0 0 127 0" result="hardAlpha"/>
<feOffset dy="4"/>
<feGaussianBlur stdDeviation="25"/>
<feComposite in2="hardAlpha" operator="out"/>
<feColorMatrix type="matrix" values="0 0 0 0 0 0 0 0 0 0 0 0 0 0 0 0 0 0 0.2 0"/>
<feBlend mode="normal" in2="BackgroundImageFix" result="effect1_dropShadow_492_2136"/>
<feBlend mode="normal" in="SourceGraphic" in2="effect1_dropShadow_492_2136" result="shape"/>
</filter>
<filter id="filter2_d_492_2136" x="573.906" y="197.672" width="137.923" height="150.237" filterUnits="userSpaceOnUse" color-interpolation-filters="sRGB">
<feFlood flood-opacity="0" result="BackgroundImageFix"/>
<feColorMatrix in="SourceAlpha" type="matrix" values="0 0 0 0 0 0 0 0 0 0 0 0 0 0 0 0 0 0 127 0" result="hardAlpha"/>
<feOffset dy="4"/>
<feGaussianBlur stdDeviation="25"/>
<feComposite in2="hardAlpha" operator="out"/>
<feColorMatrix type="matrix" values="0 0 0 0 1 0 0 0 0 0.141176 0 0 0 0 0.258824 0 0 0 0.5 0"/>
<feBlend mode="normal" in2="BackgroundImageFix" result="effect1_dropShadow_492_2136"/>
<feBlend mode="normal" in="SourceGraphic" in2="effect1_dropShadow_492_2136" result="shape"/>
</filter>
</defs>
</svg>
